<?xml version="1.0" encoding="UTF-8" standalone="no"?>
<!-- Created with Inkscape (http://www.inkscape.org/) -->

<svg
   version="1.1"
   id="svg2"
   width="2558.04"
   height="2558.2"
   viewBox="0 0 2558.04 2558.2"
   sodipodi:docname="IMDb_Logo_Alt_Square_White.eps"
   xmlns:inkscape="http://www.inkscape.org/namespaces/inkscape"
   xmlns:sodipodi="http://sodipodi.sourceforge.net/DTD/sodipodi-0.dtd"
   xmlns="http://www.w3.org/2000/svg"
   xmlns:svg="http://www.w3.org/2000/svg">
  <defs
     id="defs6" />
  <sodipodi:namedview
     id="namedview4"
     pagecolor="#ffffff"
     bordercolor="#000000"
     borderopacity="0.25"
     inkscape:showpageshadow="2"
     inkscape:pageopacity="0.0"
     inkscape:pagecheckerboard="0"
     inkscape:deskcolor="#d1d1d1" />
  <g
     id="g8"
     inkscape:groupmode="layer"
     inkscape:label="ink_ext_XXXXXX"
     transform="matrix(1.3333333,0,0,-1.3333333,0,2558.2)">
    <g
       id="g10"
       transform="scale(0.1)">
      <path
         d="m 17889.3,18790 c 504,-37.6 899.5,-455.3 899.5,-970.4 V 1367.4 c 0,-509.798 -389.7,-927.498 -883,-970.9 H 1279.8 C 802.805,439.902 428.809,820 396.199,1296.5 v 16588.2 c 32.61,487.6 417.406,873 899.701,905.3 z m 0,396.5 H 1295.9 C 591.797,19139.9 46.3086,18592 0.800781,17911.2 L 0,1296.5 C 46.7969,596.102 569.602,63 1243.81,2.10156 1255.7,0.5 1267.9,0 1279.8,0 h 16626 c 11.6,0 23.3,0.5 34.9,1.60156 C 18638.4,63 19185.3,662.801 19185.3,1367.4 v 16452.2 c 0,712.6 -556.4,1312.4 -1266.3,1365.3 -10.1,1.1 -19.6,1.6 -29.7,1.6"
         style="fill:#ffffff;fill-opacity:1;fill-rule:evenodd;stroke:none"
         id="path12" />
      <path
         d="M 2309.71,12582.9 V 6696.2 h 1523.3 v 5886.7 h -1523.3"
         style="fill:#ffffff;fill-opacity:1;fill-rule:evenodd;stroke:none"
         id="path14" />
      <path
         d="m 7074.6,12582.9 -352.3,-2753.8 -216.79,1496 c -65.11,482.8 -124.61,900 -184.41,1257.8 H 4348.11 V 6696.2 H 5681.6 l 5.3,3886.7 558.5,-3886.7 H 7194 l 536.51,3973.5 V 6696.2 H 9058.7 v 5886.7 H 7074.6"
         style="fill:#ffffff;fill-opacity:1;fill-rule:evenodd;stroke:none"
         id="path16" />
      <path
         d="m 11421.9,6696.2 c 363.2,0 640,21.2 819,59.3 184.2,38.1 336.1,108.5 455.2,211.7 124.4,97.4 211.2,238.2 259.9,417.2 48.8,178.9 81.6,531.5 81.6,1057.2 v 2065.1 c 0,558.5 -21.7,932.8 -59.3,1122.3 -32.8,189.5 -114.4,363.2 -249.9,514.6 -135.5,157.7 -335.6,265.7 -596.1,336.6 -255.1,64.6 -682.9,102.7 -1414.5,102.7 H 9579.1 V 6696.2 Z m 16.9,4824.3 c 59.3,-32.3 97.5,-86.3 113.3,-162.6 22.3,-76.2 27.6,-249.3 27.6,-515 V 8560.7 c 0,-390.2 -27.6,-628.9 -76.3,-715.8 -48.7,-92.1 -184.2,-135.5 -401.2,-135.5 V 11575 c 163,0 276.3,-16.4 336.6,-54.5"
         style="fill:#ffffff;fill-opacity:1;fill-rule:evenodd;stroke:none"
         id="path18" />
      <path
         d="M 13552.7,12582.9 V 6696.2 h 1371.6 l 92.1,373.7 c 124.4,-151.4 259.9,-265.7 411.9,-341.4 146.1,-70.4 368.4,-108.5 542,-108.5 243.6,0 450,59.8 623.7,189.5 173.1,124.9 286.9,276.8 335.6,449.9 43.4,173.7 70.9,434.1 70.9,786.7 v 1652.8 c 0,352.5 -11.1,585.5 -27.5,694 -15.9,108.5 -59.3,222.3 -135.5,336.1 -81.6,113.9 -194.8,200.7 -341.5,265.8 -146.6,59.3 -319.7,92.1 -525.7,92.1 -173.6,0 -395.9,-38.1 -547.3,-102.7 -146.7,-70.9 -282.2,-178.9 -406.6,-320.3 v 1919 z M 15531,8121.3 c 0,-281.6 -15.9,-460.6 -43.5,-536.3 -26.4,-75.7 -151.4,-113.8 -243.5,-113.8 -86.8,0 -151.9,38.1 -178.9,108 -32.8,70.9 -48.7,238.7 -48.7,498.7 v 1556.4 c 0,265.7 15.9,433.5 43.4,498.6 27,64.6 86.8,97.5 173.6,97.5 92.2,0 216.6,-32.9 248.9,-113.9 32.8,-75.7 48.7,-238.7 48.7,-482.2 v -1513"
         style="fill:#ffffff;fill-opacity:1;fill-rule:evenodd;stroke:none"
         id="path20" />
    </g>
  </g>
</svg>
